<svg width="13" height="18" viewBox="0 0 13 18" fill="none" xmlns="http://www.w3.org/2000/svg">
<path d="M12.6819 10.6453C12.5715 9.84375 12.1851 9.225 11.4951 8.81719C11.1777 8.63438 10.8327 8.50781 10.474 8.35313C10.5154 8.325 10.543 8.29688 10.5706 8.28281C12.2955 7.38281 12.1437 4.66875 10.8879 3.74063C10.3774 3.36094 9.81157 3.12188 9.21818 2.98125C8.79039 2.88281 8.3626 2.8125 7.92101 2.74219C7.92101 1.95469 7.93481 0.871875 7.93481 0L6.32025 0C6.30645 0.857812 6.30645 1.9125 6.29265 2.68594H4.99548C4.99548 1.9125 5.00928 0.857812 5.00928 0L3.40852 0C3.39472 0.871875 3.39472 1.95469 3.38092 2.72812C2.27695 2.71406 1.21437 2.71406 0.110398 2.7C0.110398 3.30469 0.0965978 3.86719 0.0965978 4.45781C0.331192 4.45781 0.538188 4.45781 0.731383 4.47187C0.938378 4.47187 1.14537 4.47187 1.33857 4.48594C1.90436 4.52812 2.19415 4.85156 2.19415 5.41406C2.16655 7.7625 2.13895 10.125 2.12515 12.4734C2.12515 12.9937 1.90436 13.1906 1.40757 13.1906H0.331192C0.220795 13.8516 0.110397 14.4844 0 15.1453C1.09017 15.1594 2.16655 15.1734 3.27052 15.1875C3.27052 16.0312 3.25672 17.1 3.25672 17.9859H4.87129C4.88509 17.1 4.88509 16.0594 4.89888 15.2297C5.35427 15.2438 5.76826 15.2578 6.19605 15.2719C6.19605 16.1156 6.18225 17.1422 6.18225 18H7.79682C7.81062 17.1141 7.81062 16.0734 7.82442 15.2578C7.87961 15.2437 7.92101 15.2438 7.96241 15.2297C8.73519 15.1031 9.52178 15.0328 10.267 14.85C11.2467 14.5969 12.0195 14.0203 12.4335 13.0359C12.7233 12.2766 12.7923 11.475 12.6819 10.6453ZM5.02308 4.62656C6.03046 4.62656 7.01023 4.54219 7.92101 4.96406C8.5282 5.23125 8.83179 5.7375 8.79039 6.34219C8.74899 6.98906 8.3902 7.45313 7.74162 7.66406C6.85844 7.95937 5.93386 7.94531 4.98168 7.90313C4.99548 6.83437 5.00928 5.76563 5.02308 4.62656ZM8.542 12.8391C7.64502 13.2469 6.70664 13.2469 5.75446 13.2609C5.49227 13.2609 5.23008 13.2469 4.94028 13.2469L4.98168 9.60469C6.20985 9.60469 7.42422 9.50625 8.5696 10.0266C9.16298 10.2938 9.50798 10.7578 9.50798 11.4469C9.49418 12.1359 9.13538 12.5719 8.542 12.8391Z" fill="#F2F2F2"/>
</svg>
