<svg width="18" height="24" viewBox="0 0 18 24" fill="none" xmlns="http://www.w3.org/2000/svg">
<path d="M17.4214 14.1937C17.2742 13.125 16.759 12.3 15.839 11.7563C15.4159 11.5125 14.9559 11.3438 14.4775 11.1375C14.5327 11.1 14.5695 11.0625 14.6063 11.0438C16.9062 9.84375 16.7038 6.225 15.0295 4.9875C14.3487 4.48125 13.5943 4.1625 12.8031 3.975C12.2327 3.84375 11.6623 3.75 11.0736 3.65625C11.0736 2.60625 11.092 1.1625 11.092 0L8.93921 0C8.92081 1.14375 8.92081 2.55 8.90241 3.58125H7.17285C7.17285 2.55 7.19125 1.14375 7.19125 0L5.0569 0C5.0385 1.1625 5.0385 2.60625 5.0201 3.6375C3.54814 3.61875 2.13137 3.61875 0.659404 3.6C0.659404 4.40625 0.641004 5.15625 0.641004 5.94375C0.953797 5.94375 1.22979 5.94375 1.48738 5.9625C1.76338 5.9625 2.03937 5.9625 2.29697 5.98125C3.05135 6.0375 3.43774 6.46875 3.43774 7.21875C3.40094 10.35 3.36414 13.5 3.34574 16.6312C3.34574 17.325 3.05135 17.5875 2.38896 17.5875H0.953797C0.8066 18.4688 0.659404 19.3125 0.512207 20.1937C1.96577 20.2125 3.40094 20.2313 4.8729 20.25C4.8729 21.375 4.8545 22.8 4.8545 23.9813H7.00725C7.02565 22.8 7.02565 21.4125 7.04405 20.3063C7.65124 20.325 8.20323 20.3438 8.77361 20.3625C8.77361 21.4875 8.75521 22.8563 8.75521 24H10.908C10.9264 22.8188 10.9264 21.4312 10.9448 20.3438C11.0184 20.325 11.0736 20.325 11.1288 20.3063C12.1591 20.1375 13.2079 20.0437 14.2015 19.8C15.5079 19.4625 16.5382 18.6937 17.0902 17.3812C17.4766 16.3687 17.5686 15.3 17.4214 14.1937ZM7.20965 6.16875C8.55282 6.16875 9.85919 6.05625 11.0736 6.61875C11.8831 6.975 12.2879 7.65 12.2327 8.45625C12.1775 9.31875 11.6991 9.9375 10.8344 10.2188C9.65679 10.6125 8.42402 10.5938 7.15445 10.5375C7.17285 9.1125 7.19125 7.6875 7.20965 6.16875ZM11.9015 17.1188C10.7056 17.6625 9.4544 17.6625 8.18482 17.6813C7.83523 17.6813 7.48564 17.6625 7.09925 17.6625L7.15445 12.8063C8.79201 12.8063 10.4112 12.675 11.9383 13.3688C12.7295 13.725 13.1895 14.3438 13.1895 15.2625C13.1711 16.1812 12.6927 16.7625 11.9015 17.1188Z" fill="#F2F2F2"/>
</svg>
