<svg width="20" height="20" viewBox="0 0 20 20" fill="none" xmlns="http://www.w3.org/2000/svg">
<path d="M13.3334 10.75V14.25C13.3334 17.1666 12.1667 18.3333 9.25008 18.3333H5.75008C2.83341 18.3333 1.66675 17.1666 1.66675 14.25V10.75C1.66675 7.83329 2.83341 6.66663 5.75008 6.66663H9.25008C12.1667 6.66663 13.3334 7.83329 13.3334 10.75Z" stroke="white" stroke-width="1.5" stroke-linecap="round" stroke-linejoin="round"/>
<path d="M18.3334 5.74996V9.24996C18.3334 12.1666 17.1667 13.3333 14.2501 13.3333H13.3334V10.75C13.3334 7.83329 12.1667 6.66663 9.25008 6.66663H6.66675V5.74996C6.66675 2.83329 7.83341 1.66663 10.7501 1.66663H14.2501C17.1667 1.66663 18.3334 2.83329 18.3334 5.74996Z" stroke="white" stroke-width="1.5" stroke-linecap="round" stroke-linejoin="round"/>
</svg>
