<svg width="44" height="44" viewBox="0 0 44 44" fill="none" xmlns="http://www.w3.org/2000/svg">
<circle cx="22" cy="22" r="21.25" fill="#0F0C17" stroke="url(#paint0_linear_2_14)" stroke-width="1.5"/>
<path d="M19.9545 27.4545V27.3182C19.9697 25.8712 20.1212 24.7197 20.4091 23.8636C20.697 23.0076 21.1061 22.3144 21.6364 21.7841C22.1667 21.2538 22.803 20.7652 23.5455 20.3182C23.9924 20.0455 24.3939 19.7235 24.75 19.3523C25.1061 18.9735 25.3864 18.5379 25.5909 18.0455C25.803 17.553 25.9091 17.0076 25.9091 16.4091C25.9091 15.6667 25.7348 15.0227 25.3864 14.4773C25.0379 13.9318 24.572 13.5114 23.9886 13.2159C23.4053 12.9205 22.7576 12.7727 22.0455 12.7727C21.4242 12.7727 20.8258 12.9015 20.25 13.1591C19.6742 13.4167 19.1932 13.822 18.8068 14.375C18.4205 14.928 18.197 15.6515 18.1364 16.5455H15.2727C15.3333 15.2576 15.6667 14.1553 16.2727 13.2386C16.8864 12.322 17.6932 11.6212 18.6932 11.1364C19.7008 10.6515 20.8182 10.4091 22.0455 10.4091C23.3788 10.4091 24.5379 10.6742 25.5227 11.2045C26.5152 11.7348 27.2803 12.4621 27.8182 13.3864C28.3636 14.3106 28.6364 15.3636 28.6364 16.5455C28.6364 17.3788 28.5076 18.1326 28.25 18.8068C28 19.4811 27.6364 20.0833 27.1591 20.6136C26.6894 21.1439 26.1212 21.6136 25.4545 22.0227C24.7879 22.4394 24.2538 22.8788 23.8523 23.3409C23.4508 23.7955 23.1591 24.3371 22.9773 24.9659C22.7955 25.5947 22.697 26.3788 22.6818 27.3182V27.4545H19.9545ZM21.4091 34.1818C20.8485 34.1818 20.3674 33.9811 19.9659 33.5795C19.5644 33.178 19.3636 32.697 19.3636 32.1364C19.3636 31.5758 19.5644 31.0947 19.9659 30.6932C20.3674 30.2917 20.8485 30.0909 21.4091 30.0909C21.9697 30.0909 22.4508 30.2917 22.8523 30.6932C23.2538 31.0947 23.4545 31.5758 23.4545 32.1364C23.4545 32.5076 23.3598 32.8485 23.1705 33.1591C22.9886 33.4697 22.7424 33.7197 22.4318 33.9091C22.1288 34.0909 21.7879 34.1818 21.4091 34.1818Z" fill="url(#paint1_linear_2_14)"/>
<defs>
<linearGradient id="paint0_linear_2_14" x1="0" y1="22" x2="44" y2="22" gradientUnits="userSpaceOnUse">
<stop stop-color="#FB69B2"/>
<stop offset="1" stop-color="#4646F6"/>
</linearGradient>
<linearGradient id="paint1_linear_2_14" x1="7.17597e-07" y1="23" x2="44" y2="23" gradientUnits="userSpaceOnUse">
<stop stop-color="#FB69B2"/>
<stop offset="1" stop-color="#4646F6"/>
</linearGradient>
</defs>
</svg>
