<svg width="86" height="42" viewBox="0 0 86 42" fill="none" xmlns="http://www.w3.org/2000/svg">
<g clip-path="url(#clip0_1_6181)">
<path d="M42.2476 31.9872C42.0168 31.9872 41.8279 31.9138 41.681 31.7673C41.5341 31.6207 41.4606 31.4322 41.4606 31.2019V10.7853C41.4606 10.5549 41.5341 10.3665 41.681 10.2199C41.8279 10.0733 42.0168 10 42.2476 10H45.8045C46.0354 10 46.2243 10.0733 46.3712 10.2199C46.5181 10.3665 46.5915 10.5549 46.5915 10.7853V31.2019C46.5915 31.4322 46.5181 31.6207 46.3712 31.7673C46.2243 31.9138 46.0354 31.9872 45.8045 31.9872H42.2476Z" fill="white"/>
<path d="M50.4393 20.9936C50.4393 18.7778 50.7956 16.8664 51.5082 15.2594C52.2208 13.6524 53.2897 12.3984 54.7149 11.4975C56.1639 10.5966 57.9811 10.1096 60.1664 10.0365C61.1878 10.0122 62.1974 10 63.195 10C64.2164 10 65.2497 10.0122 66.2949 10.0365C68.4327 10.1096 70.2261 10.5966 71.6751 11.4975C73.1481 12.4227 74.2521 13.6889 74.9886 15.2959C75.725 16.9273 76.0933 18.8265 76.0933 20.9936C76.0933 23.1363 75.725 25.0111 74.9886 26.6182C74.2521 28.2496 73.1481 29.5279 71.6751 30.4532C70.2261 31.3785 68.4327 31.8654 66.2949 31.9141C65.2497 31.9628 64.2164 31.9872 63.195 31.9872C62.1974 31.9872 61.1878 31.9628 60.1664 31.9141C57.9811 31.841 56.1639 31.3541 54.7149 30.4532C53.2897 29.5523 52.2208 28.2983 51.5082 26.6913C50.7956 25.0842 50.4393 23.185 50.4393 20.9936ZM55.0356 20.9936C55.0356 22.4058 55.4513 23.5624 56.2827 24.4633C57.1378 25.3886 58.4917 25.8755 60.3446 25.9242C61.3898 25.9729 62.3636 25.9973 63.2663 25.9973C64.1926 25.9973 65.1666 25.9729 66.188 25.9242C67.4232 25.8999 68.4327 25.6686 69.2166 25.2303C70.0005 24.792 70.5706 24.2076 70.9269 23.4771C71.3069 22.771 71.4969 21.9432 71.4969 20.9936C71.4969 20.044 71.3069 19.2039 70.9269 18.4734C70.5706 17.743 70.0005 17.1586 69.2166 16.7203C68.4327 16.3064 67.4232 16.0751 66.188 16.0264C65.1666 16.002 64.1926 15.9899 63.2663 15.9899C62.3636 15.9899 61.3898 16.002 60.3446 16.0264C58.4917 16.0994 57.1378 16.5864 56.2827 17.4873C55.4513 18.3882 55.0356 19.557 55.0356 20.9936Z" fill="white"/>
<path d="M27.4131 11.2752L37.222 28.0889C38.228 29.8133 36.9949 31.9872 35.0108 31.9872H19.243L22.1797 26.167H28.5932L24.1037 17.7602L16.4075 31.9872H12.0284C10.0195 31.9872 8.79011 29.7645 9.84575 28.0411L20.1451 11.2274C20.6124 10.4645 21.4383 10 22.3277 10H25.2018C26.111 10 26.9521 10.4851 27.4131 11.2752Z" fill="white"/>
</g>
<g opacity="0.25" clip-path="url(#clip1_1_6181)" filter="url(#filter0_f_1_6181)">
<path d="M42.2476 31.9872C42.0168 31.9872 41.8279 31.9138 41.681 31.7673C41.5341 31.6207 41.4606 31.4322 41.4606 31.2019V10.7853C41.4606 10.5549 41.5341 10.3665 41.681 10.2199C41.8279 10.0733 42.0168 10 42.2476 10H45.8045C46.0354 10 46.2243 10.0733 46.3712 10.2199C46.5181 10.3665 46.5915 10.5549 46.5915 10.7853V31.2019C46.5915 31.4322 46.5181 31.6207 46.3712 31.7673C46.2243 31.9138 46.0354 31.9872 45.8045 31.9872H42.2476Z" fill="white"/>
<path d="M50.4393 20.9936C50.4393 18.7778 50.7956 16.8664 51.5082 15.2594C52.2208 13.6524 53.2897 12.3984 54.7149 11.4975C56.1639 10.5966 57.9811 10.1096 60.1664 10.0365C61.1878 10.0122 62.1974 10 63.195 10C64.2164 10 65.2497 10.0122 66.2949 10.0365C68.4327 10.1096 70.2261 10.5966 71.6751 11.4975C73.1481 12.4227 74.2521 13.6889 74.9886 15.2959C75.725 16.9273 76.0933 18.8265 76.0933 20.9936C76.0933 23.1363 75.725 25.0111 74.9886 26.6182C74.2521 28.2496 73.1481 29.5279 71.6751 30.4532C70.2261 31.3785 68.4327 31.8654 66.2949 31.9141C65.2497 31.9628 64.2164 31.9872 63.195 31.9872C62.1974 31.9872 61.1878 31.9628 60.1664 31.9141C57.9811 31.841 56.1639 31.3541 54.7149 30.4532C53.2897 29.5523 52.2208 28.2983 51.5082 26.6913C50.7956 25.0842 50.4393 23.185 50.4393 20.9936ZM55.0356 20.9936C55.0356 22.4058 55.4513 23.5624 56.2827 24.4633C57.1378 25.3886 58.4917 25.8755 60.3446 25.9242C61.3898 25.9729 62.3636 25.9973 63.2663 25.9973C64.1926 25.9973 65.1666 25.9729 66.188 25.9242C67.4232 25.8999 68.4327 25.6686 69.2166 25.2303C70.0005 24.792 70.5706 24.2076 70.9269 23.4771C71.3069 22.771 71.4969 21.9432 71.4969 20.9936C71.4969 20.044 71.3069 19.2039 70.9269 18.4734C70.5706 17.743 70.0005 17.1586 69.2166 16.7203C68.4327 16.3064 67.4232 16.0751 66.188 16.0264C65.1666 16.002 64.1926 15.9899 63.2663 15.9899C62.3636 15.9899 61.3898 16.002 60.3446 16.0264C58.4917 16.0994 57.1378 16.5864 56.2827 17.4873C55.4513 18.3882 55.0356 19.557 55.0356 20.9936Z" fill="white"/>
<path d="M27.4131 11.2752L37.222 28.0889C38.228 29.8133 36.9949 31.9872 35.0108 31.9872H19.243L22.1797 26.167H28.5932L24.1037 17.7602L16.4075 31.9872H12.0284C10.0195 31.9872 8.79011 29.7645 9.84575 28.0411L20.1451 11.2274C20.6124 10.4645 21.4383 10 22.3277 10H25.2018C26.111 10 26.9521 10.4851 27.4131 11.2752Z" fill="white"/>
</g>
<defs>
<filter id="filter0_f_1_6181" x="-0.428572" y="0.571428" width="86.4286" height="40.8571" filterUnits="userSpaceOnUse" color-interpolation-filters="sRGB">
<feFlood flood-opacity="0" result="BackgroundImageFix"/>
<feBlend mode="normal" in="SourceGraphic" in2="BackgroundImageFix" result="shape"/>
<feGaussianBlur stdDeviation="4.71429" result="effect1_foregroundBlur_1_6181"/>
</filter>
<clipPath id="clip0_1_6181">
<rect width="67.5714" height="22" fill="white" transform="translate(9 10)"/>
</clipPath>
<clipPath id="clip1_1_6181">
<rect width="67.5714" height="22" fill="white" transform="translate(9 10)"/>
</clipPath>
</defs>
</svg>
