<svg width="86" height="28" viewBox="0 0 86 28" fill="none" xmlns="http://www.w3.org/2000/svg">
<g clip-path="url(#clip0_1_9)">
<path d="M42.3152 27.9837C42.0214 27.9837 41.7809 27.8904 41.594 27.7039C41.407 27.5173 41.3135 27.2774 41.3135 26.9843V0.999415C41.3135 0.706255 41.407 0.466394 41.594 0.279838C41.7809 0.0932795 42.0214 0 42.3152 0H46.8421C47.1359 0 47.3763 0.0932795 47.5633 0.279838C47.7503 0.466394 47.8437 0.706255 47.8437 0.999415V26.9843C47.8437 27.2774 47.7503 27.5173 47.5633 27.7039C47.3763 27.8904 47.1359 27.9837 46.8421 27.9837H42.3152Z" fill="white"/>
<path d="M52.7409 13.9918C52.7409 11.1717 53.1944 8.73911 54.1013 6.69377C55.0083 4.64845 56.3687 3.05248 58.1826 1.90587C60.0268 0.759246 62.3395 0.139453 65.1209 0.0464842C66.4209 0.0154946 67.7058 -5.59637e-08 68.9755 0C70.2755 5.72959e-08 71.5905 0.0154949 72.9208 0.0464845C75.6417 0.139453 77.9242 0.759247 79.7683 1.90587C81.643 3.08347 83.0481 4.69494 83.9855 6.74025C84.9228 8.81655 85.3914 11.2337 85.3914 13.9918C85.3914 16.7189 84.9228 19.1051 83.9855 21.1504C83.0481 23.2267 81.643 24.8537 79.7683 26.0313C77.9242 27.2089 75.6417 27.8287 72.9208 27.8907C71.5905 27.9527 70.2755 27.9837 68.9755 27.9837C67.7058 27.9837 66.4209 27.9527 65.1209 27.8907C62.3395 27.7977 60.0268 27.1779 58.1826 26.0313C56.3687 24.8847 55.0083 23.2887 54.1013 21.2434C53.1944 19.1981 52.7409 16.7809 52.7409 13.9918ZM58.5908 13.9918C58.5908 15.7892 59.1198 17.2612 60.1779 18.4079C61.2663 19.5855 62.9895 20.2052 65.3476 20.2672C66.6779 20.3292 67.9173 20.3602 69.0662 20.3602C70.2452 20.3602 71.4847 20.3292 72.7847 20.2672C74.3568 20.2363 75.6417 19.9418 76.6393 19.384C77.637 18.8262 78.3626 18.0825 78.816 17.1527C79.2997 16.254 79.5415 15.2004 79.5415 13.9918C79.5415 12.7832 79.2997 11.7141 78.816 10.7844C78.3626 9.85474 77.637 9.11093 76.6393 8.55312C75.6417 8.02632 74.3568 7.73192 72.7847 7.66994C71.4847 7.63895 70.2452 7.62345 69.0662 7.62345C67.9173 7.62345 66.6779 7.63895 65.3476 7.66994C62.9895 7.7629 61.2663 8.3827 60.1779 9.52933C59.1198 10.6759 58.5908 12.1634 58.5908 13.9918Z" fill="white"/>
<path d="M23.4348 1.62298L35.9189 23.0222C37.1993 25.2169 35.6298 27.9837 33.1046 27.9837H13.0366L16.7741 20.5762H24.9368L19.2229 9.8766L9.42776 27.9837H3.85431C1.29758 27.9837 -0.267145 25.1548 1.0764 22.9614L14.1846 1.56217C14.7795 0.591129 15.8306 0 16.9626 0H20.6205C21.7776 0 22.8482 0.617419 23.4348 1.62298Z" fill="white"/>
</g>
<defs>
<clipPath id="clip0_1_9">
<rect width="86" height="28" fill="white"/>
</clipPath>
</defs>
</svg>
