<svg width="252" height="83" viewBox="0 0 252 83" fill="none" xmlns="http://www.w3.org/2000/svg">
<g clip-path="url(#clip0_1_5826)">
<path d="M123.993 81.9987C123.132 81.9987 122.428 81.7252 121.88 81.1787C121.332 80.632 121.058 79.9291 121.058 79.0702V2.92852C121.058 2.06949 121.332 1.36664 121.88 0.81999C122.428 0.273331 123.132 0 123.993 0H137.258C138.119 0 138.824 0.273331 139.372 0.81999C139.919 1.36664 140.193 2.06949 140.193 2.92852V79.0702C140.193 79.9291 139.919 80.632 139.372 81.1787C138.824 81.7252 138.119 81.9987 137.258 81.9987H123.993Z" fill="white"/>
<path d="M154.543 40.9994C154.543 32.7358 155.872 25.6076 158.529 19.6143C161.187 13.621 165.173 8.94448 170.489 5.58463C175.892 2.22477 182.669 0.408631 190.819 0.136209C194.629 0.0454029 198.394 -1.63987e-07 202.114 0C205.923 1.6789e-07 209.777 0.0454036 213.675 0.13621C221.648 0.408631 228.336 2.22477 233.74 5.58463C239.233 9.03529 243.35 13.7573 246.097 19.7505C248.843 25.8345 250.217 32.9174 250.217 40.9994C250.217 48.9904 248.843 55.9823 246.097 61.9757C243.35 68.0597 239.233 72.827 233.74 76.2779C228.336 79.7285 221.648 81.5446 213.675 81.7262C209.777 81.9078 205.923 81.9987 202.114 81.9987C198.394 81.9987 194.629 81.9078 190.819 81.7262C182.669 81.4537 175.892 79.6376 170.489 76.2779C165.173 72.9179 161.187 68.2413 158.529 62.2482C155.872 56.2548 154.543 49.172 154.543 40.9994ZM171.685 40.9994C171.685 46.2661 173.235 50.5793 176.335 53.9393C179.524 57.3899 184.574 59.206 191.484 59.3876C195.382 59.5692 199.014 59.6601 202.38 59.6601C205.835 59.6601 209.467 59.5692 213.276 59.3876C217.883 59.297 221.648 58.4341 224.571 56.7996C227.494 55.1651 229.621 52.9858 230.949 50.2615C232.367 47.6281 233.075 44.5407 233.075 40.9994C233.075 37.4578 232.367 34.325 230.949 31.6007C229.621 28.8767 227.494 26.6971 224.571 25.0626C221.648 23.519 217.883 22.6563 213.276 22.4747C209.467 22.3839 205.835 22.3385 202.38 22.3385C199.014 22.3385 195.382 22.3839 191.484 22.4747C184.574 22.7471 179.524 24.5632 176.335 27.9232C173.235 31.2829 171.685 35.6417 171.685 40.9994Z" fill="white"/>
<path d="M68.6694 4.75572L105.251 67.4605C109.002 73.8914 104.404 81.9987 97.0042 81.9987H38.2003L49.152 60.2931H73.0705L56.3275 28.9407L27.6255 81.9987H11.294C3.80221 81.9987 -0.782804 73.7093 3.15411 67.2823L41.5643 4.57753C43.3073 1.73215 46.3874 0 49.7043 0H60.4229C63.8134 0 66.9504 1.80918 68.6694 4.75572Z" fill="white"/>
</g>
<defs>
<clipPath id="clip0_1_5826">
<rect width="252" height="82.0465" fill="white"/>
</clipPath>
</defs>
</svg>
