<svg width="76" height="37" viewBox="0 0 76 37" fill="none" xmlns="http://www.w3.org/2000/svg">
<g clip-path="url(#clip0_332_1881)">
<path d="M37.5222 28.5235C37.3172 28.5235 37.1495 28.4584 37.019 28.3283C36.8886 28.1981 36.8234 28.0307 36.8234 27.8262V9.69727C36.8234 9.49274 36.8886 9.32539 37.019 9.19524C37.1495 9.06508 37.3172 9 37.5222 9H40.6805C40.8855 9 41.0532 9.06508 41.1837 9.19524C41.3141 9.32539 41.3793 9.49274 41.3793 9.69727V27.8262C41.3793 28.0307 41.3141 28.1981 41.1837 28.3283C41.0532 28.4584 40.8855 28.5235 40.6805 28.5235H37.5222Z" fill="white"/>
<path d="M44.7959 18.7618C44.7959 16.7942 45.1123 15.0971 45.745 13.6701C46.3778 12.2431 47.327 11.1296 48.5925 10.3297C49.8791 9.52971 51.4926 9.09729 53.4331 9.03243C54.3401 9.01081 55.2365 9 56.1224 9C57.0293 9 57.9468 9.01081 58.8749 9.03243C60.7732 9.09729 62.3656 9.52971 63.6522 10.3297C64.9602 11.1513 65.9405 12.2755 66.5944 13.7025C67.2484 15.1511 67.5754 16.8375 67.5754 18.7618C67.5754 20.6644 67.2484 22.3291 66.5944 23.7561C65.9405 25.2047 64.9602 26.3398 63.6522 27.1614C62.3656 27.983 60.7732 28.4154 58.8749 28.4586C57.9468 28.5019 57.0293 28.5235 56.1224 28.5235C55.2365 28.5235 54.3401 28.5019 53.4331 28.4586C51.4926 28.3937 49.8791 27.9613 48.5925 27.1614C47.327 26.3614 46.3778 25.2479 45.745 23.821C45.1123 22.394 44.7959 20.7076 44.7959 18.7618ZM48.8772 18.7618C48.8772 20.0157 49.2463 21.0427 49.9846 21.8427C50.7439 22.6643 51.9461 23.0967 53.5913 23.1399C54.5194 23.1831 55.3841 23.2048 56.1857 23.2048C57.0082 23.2048 57.873 23.1831 58.78 23.1399C59.8768 23.1183 60.7732 22.9129 61.4692 22.5237C62.1653 22.1345 62.6715 21.6157 62.9879 20.967C63.3253 20.34 63.494 19.6049 63.494 18.7618C63.494 17.9185 63.3253 17.1726 62.9879 16.524C62.6715 15.8754 62.1653 15.3565 61.4692 14.9673C60.7732 14.5998 59.8768 14.3944 58.78 14.3511C57.873 14.3295 57.0082 14.3187 56.1857 14.3187C55.3841 14.3187 54.5194 14.3295 53.5913 14.3511C51.9461 14.416 50.7439 14.8484 49.9846 15.6484C49.2463 16.4483 48.8772 17.4861 48.8772 18.7618Z" fill="white"/>
<path d="M24.3498 10.1323L33.0597 25.062C33.953 26.5932 32.858 28.5235 31.0962 28.5235H17.0953L19.7028 23.3555H25.3977L21.4113 15.8907L14.5775 28.5235H10.689C8.90527 28.5235 7.8136 26.5498 8.75095 25.0196L17.8962 10.0899C18.3112 9.41242 19.0446 9 19.8343 9H22.3864C23.1936 9 23.9405 9.43076 24.3498 10.1323Z" fill="white"/>
</g>
<g opacity="0.25" clip-path="url(#clip1_332_1881)" filter="url(#filter0_f_332_1881)">
<path d="M37.5222 28.5235C37.3172 28.5235 37.1495 28.4584 37.019 28.3283C36.8886 28.1981 36.8234 28.0307 36.8234 27.8262V9.69727C36.8234 9.49274 36.8886 9.32539 37.019 9.19524C37.1495 9.06508 37.3172 9 37.5222 9H40.6805C40.8855 9 41.0532 9.06508 41.1837 9.19524C41.3141 9.32539 41.3793 9.49274 41.3793 9.69727V27.8262C41.3793 28.0307 41.3141 28.1981 41.1837 28.3283C41.0532 28.4584 40.8855 28.5235 40.6805 28.5235H37.5222Z" fill="white"/>
<path d="M44.7959 18.7618C44.7959 16.7942 45.1123 15.0971 45.745 13.6701C46.3778 12.2431 47.327 11.1296 48.5925 10.3297C49.8791 9.52971 51.4926 9.09729 53.4331 9.03243C54.3401 9.01081 55.2365 9 56.1224 9C57.0293 9 57.9468 9.01081 58.8749 9.03243C60.7732 9.09729 62.3656 9.52971 63.6522 10.3297C64.9602 11.1513 65.9405 12.2755 66.5944 13.7025C67.2484 15.1511 67.5754 16.8375 67.5754 18.7618C67.5754 20.6644 67.2484 22.3291 66.5944 23.7561C65.9405 25.2047 64.9602 26.3398 63.6522 27.1614C62.3656 27.983 60.7732 28.4154 58.8749 28.4586C57.9468 28.5019 57.0293 28.5235 56.1224 28.5235C55.2365 28.5235 54.3401 28.5019 53.4331 28.4586C51.4926 28.3937 49.8791 27.9613 48.5925 27.1614C47.327 26.3614 46.3778 25.2479 45.745 23.821C45.1123 22.394 44.7959 20.7076 44.7959 18.7618ZM48.8772 18.7618C48.8772 20.0157 49.2463 21.0427 49.9846 21.8427C50.7439 22.6643 51.9461 23.0967 53.5913 23.1399C54.5194 23.1831 55.3841 23.2048 56.1857 23.2048C57.0082 23.2048 57.873 23.1831 58.78 23.1399C59.8768 23.1183 60.7732 22.9129 61.4692 22.5237C62.1653 22.1345 62.6715 21.6157 62.9879 20.967C63.3253 20.34 63.494 19.6049 63.494 18.7618C63.494 17.9185 63.3253 17.1726 62.9879 16.524C62.6715 15.8754 62.1653 15.3565 61.4692 14.9673C60.7732 14.5998 59.8768 14.3944 58.78 14.3511C57.873 14.3295 57.0082 14.3187 56.1857 14.3187C55.3841 14.3187 54.5194 14.3295 53.5913 14.3511C51.9461 14.416 50.7439 14.8484 49.9846 15.6484C49.2463 16.4483 48.8772 17.4861 48.8772 18.7618Z" fill="white"/>
<path d="M24.3498 10.1323L33.0597 25.062C33.953 26.5932 32.858 28.5235 31.0962 28.5235H17.0953L19.7028 23.3555H25.3977L21.4113 15.8907L14.5775 28.5235H10.689C8.90527 28.5235 7.8136 26.5498 8.75095 25.0196L17.8962 10.0899C18.3112 9.41242 19.0446 9 19.8343 9H22.3864C23.1936 9 23.9405 9.43076 24.3498 10.1323Z" fill="white"/>
</g>
<g opacity="0.25" clip-path="url(#clip2_332_1881)" filter="url(#filter1_f_332_1881)">
<path d="M37.5222 28.5235C37.3172 28.5235 37.1495 28.4584 37.019 28.3283C36.8886 28.1981 36.8234 28.0307 36.8234 27.8262V9.69727C36.8234 9.49274 36.8886 9.32539 37.019 9.19524C37.1495 9.06508 37.3172 9 37.5222 9H40.6805C40.8855 9 41.0532 9.06508 41.1837 9.19524C41.3141 9.32539 41.3793 9.49274 41.3793 9.69727V27.8262C41.3793 28.0307 41.3141 28.1981 41.1837 28.3283C41.0532 28.4584 40.8855 28.5235 40.6805 28.5235H37.5222Z" fill="white"/>
<path d="M44.7959 18.7618C44.7959 16.7942 45.1123 15.0971 45.745 13.6701C46.3778 12.2431 47.327 11.1296 48.5925 10.3297C49.8791 9.52971 51.4926 9.09729 53.4331 9.03243C54.3401 9.01081 55.2365 9 56.1224 9C57.0293 9 57.9468 9.01081 58.8749 9.03243C60.7732 9.09729 62.3656 9.52971 63.6522 10.3297C64.9602 11.1513 65.9405 12.2755 66.5944 13.7025C67.2484 15.1511 67.5754 16.8375 67.5754 18.7618C67.5754 20.6644 67.2484 22.3291 66.5944 23.7561C65.9405 25.2047 64.9602 26.3398 63.6522 27.1614C62.3656 27.983 60.7732 28.4154 58.8749 28.4586C57.9468 28.5019 57.0293 28.5235 56.1224 28.5235C55.2365 28.5235 54.3401 28.5019 53.4331 28.4586C51.4926 28.3937 49.8791 27.9613 48.5925 27.1614C47.327 26.3614 46.3778 25.2479 45.745 23.821C45.1123 22.394 44.7959 20.7076 44.7959 18.7618ZM48.8772 18.7618C48.8772 20.0157 49.2463 21.0427 49.9846 21.8427C50.7439 22.6643 51.9461 23.0967 53.5913 23.1399C54.5194 23.1831 55.3841 23.2048 56.1857 23.2048C57.0082 23.2048 57.873 23.1831 58.78 23.1399C59.8768 23.1183 60.7732 22.9129 61.4692 22.5237C62.1653 22.1345 62.6715 21.6157 62.9879 20.967C63.3253 20.34 63.494 19.6049 63.494 18.7618C63.494 17.9185 63.3253 17.1726 62.9879 16.524C62.6715 15.8754 62.1653 15.3565 61.4692 14.9673C60.7732 14.5998 59.8768 14.3944 58.78 14.3511C57.873 14.3295 57.0082 14.3187 56.1857 14.3187C55.3841 14.3187 54.5194 14.3295 53.5913 14.3511C51.9461 14.416 50.7439 14.8484 49.9846 15.6484C49.2463 16.4483 48.8772 17.4861 48.8772 18.7618Z" fill="white"/>
<path d="M24.3498 10.1323L33.0597 25.062C33.953 26.5932 32.858 28.5235 31.0962 28.5235H17.0953L19.7028 23.3555H25.3977L21.4113 15.8907L14.5775 28.5235H10.689C8.90527 28.5235 7.8136 26.5498 8.75095 25.0196L17.8962 10.0899C18.3112 9.41242 19.0446 9 19.8343 9H22.3864C23.1936 9 23.9405 9.43076 24.3498 10.1323Z" fill="white"/>
</g>
<defs>
<filter id="filter0_f_332_1881" x="-0.372093" y="0.627907" width="76.7442" height="36.2791" filterUnits="userSpaceOnUse" color-interpolation-filters="sRGB">
<feFlood flood-opacity="0" result="BackgroundImageFix"/>
<feBlend mode="normal" in="SourceGraphic" in2="BackgroundImageFix" result="shape"/>
<feGaussianBlur stdDeviation="4.18605" result="effect1_foregroundBlur_332_1881"/>
</filter>
<filter id="filter1_f_332_1881" x="-0.372093" y="0.627907" width="76.7442" height="36.2791" filterUnits="userSpaceOnUse" color-interpolation-filters="sRGB">
<feFlood flood-opacity="0" result="BackgroundImageFix"/>
<feBlend mode="normal" in="SourceGraphic" in2="BackgroundImageFix" result="shape"/>
<feGaussianBlur stdDeviation="4.18605" result="effect1_foregroundBlur_332_1881"/>
</filter>
<clipPath id="clip0_332_1881">
<rect width="60" height="19.5349" fill="white" transform="translate(8 9)"/>
</clipPath>
<clipPath id="clip1_332_1881">
<rect width="60" height="19.5349" fill="white" transform="translate(8 9)"/>
</clipPath>
<clipPath id="clip2_332_1881">
<rect width="60" height="19.5349" fill="white" transform="translate(8 9)"/>
</clipPath>
</defs>
</svg>
