<svg width="110" height="52" viewBox="0 0 110 52" fill="none" xmlns="http://www.w3.org/2000/svg">
<g clip-path="url(#clip0_1_45)">
<path d="M54.3152 39.9837C54.0214 39.9837 53.7809 39.8904 53.594 39.7039C53.407 39.5173 53.3135 39.2774 53.3135 38.9843V12.9994C53.3135 12.7063 53.407 12.4664 53.594 12.2798C53.7809 12.0933 54.0214 12 54.3152 12H58.8421C59.1359 12 59.3763 12.0933 59.5633 12.2798C59.7503 12.4664 59.8437 12.7063 59.8437 12.9994V38.9843C59.8437 39.2774 59.7503 39.5173 59.5633 39.7039C59.3763 39.8904 59.1359 39.9837 58.8421 39.9837H54.3152Z" fill="white"/>
<path d="M64.7409 25.9918C64.7409 23.1717 65.1944 20.7391 66.1013 18.6938C67.0083 16.6484 68.3687 15.0525 70.1826 13.9059C72.0268 12.7592 74.3395 12.1395 77.1209 12.0465C78.4209 12.0155 79.7058 12 80.9755 12C82.2754 12 83.5905 12.0155 84.9208 12.0465C87.6417 12.1395 89.9242 12.7592 91.7683 13.9059C93.643 15.0835 95.0481 16.6949 95.9855 18.7402C96.9228 20.8166 97.3914 23.2337 97.3914 25.9918C97.3914 28.7189 96.9228 31.1051 95.9855 33.1504C95.0481 35.2267 93.643 36.8537 91.7683 38.0313C89.9242 39.2089 87.6417 39.8287 84.9208 39.8907C83.5905 39.9527 82.2754 39.9837 80.9755 39.9837C79.7058 39.9837 78.4209 39.9527 77.1209 39.8907C74.3395 39.7977 72.0268 39.1779 70.1826 38.0313C68.3687 36.8847 67.0083 35.2887 66.1013 33.2434C65.1944 31.1981 64.7409 28.7809 64.7409 25.9918ZM70.5908 25.9918C70.5908 27.7892 71.1198 29.2612 72.1779 30.4079C73.2663 31.5855 74.9895 32.2052 77.3476 32.2672C78.6779 32.3292 79.9173 32.3602 81.0662 32.3602C82.2452 32.3602 83.4847 32.3292 84.7847 32.2672C86.3568 32.2363 87.6417 31.9418 88.6393 31.384C89.637 30.8262 90.3626 30.0825 90.816 29.1527C91.2997 28.254 91.5415 27.2004 91.5415 25.9918C91.5415 24.7832 91.2997 23.7141 90.816 22.7844C90.3626 21.8547 89.637 21.1109 88.6393 20.5531C87.6417 20.0263 86.3568 19.7319 84.7847 19.6699C83.4847 19.6389 82.2452 19.6234 81.0662 19.6234C79.9173 19.6234 78.6779 19.6389 77.3476 19.6699C74.9895 19.7629 73.2663 20.3827 72.1779 21.5293C71.1198 22.6759 70.5908 24.1634 70.5908 25.9918Z" fill="white"/>
<path d="M35.4348 13.623L47.9189 35.0222C49.1993 37.2169 47.6298 39.9837 45.1046 39.9837H25.0366L28.7741 32.5762H36.9368L31.2229 21.8766L21.4278 39.9837H15.8543C13.2976 39.9837 11.7329 37.1548 13.0764 34.9614L26.1846 13.5622C26.7795 12.5911 27.8306 12 28.9626 12H32.6205C33.7776 12 34.8482 12.6174 35.4348 13.623Z" fill="white"/>
</g>
<g opacity="0.25" clip-path="url(#clip1_1_45)" filter="url(#filter0_f_1_45)">
<path d="M54.3152 39.9837C54.0214 39.9837 53.7809 39.8904 53.594 39.7039C53.407 39.5173 53.3135 39.2774 53.3135 38.9843V12.9994C53.3135 12.7063 53.407 12.4664 53.594 12.2798C53.7809 12.0933 54.0214 12 54.3152 12H58.8421C59.1359 12 59.3763 12.0933 59.5633 12.2798C59.7503 12.4664 59.8437 12.7063 59.8437 12.9994V38.9843C59.8437 39.2774 59.7503 39.5173 59.5633 39.7039C59.3763 39.8904 59.1359 39.9837 58.8421 39.9837H54.3152Z" fill="white"/>
<path d="M64.7409 25.9918C64.7409 23.1717 65.1944 20.7391 66.1013 18.6938C67.0083 16.6484 68.3687 15.0525 70.1826 13.9059C72.0268 12.7592 74.3395 12.1395 77.1209 12.0465C78.4209 12.0155 79.7058 12 80.9755 12C82.2755 12 83.5905 12.0155 84.9208 12.0465C87.6417 12.1395 89.9242 12.7592 91.7683 13.9059C93.643 15.0835 95.0481 16.6949 95.9855 18.7402C96.9228 20.8166 97.3914 23.2337 97.3914 25.9918C97.3914 28.7189 96.9228 31.1051 95.9855 33.1504C95.0481 35.2267 93.643 36.8537 91.7683 38.0313C89.9242 39.2089 87.6417 39.8287 84.9208 39.8907C83.5905 39.9527 82.2755 39.9837 80.9755 39.9837C79.7058 39.9837 78.4209 39.9527 77.1209 39.8907C74.3395 39.7977 72.0268 39.1779 70.1826 38.0313C68.3687 36.8847 67.0083 35.2887 66.1013 33.2434C65.1944 31.1981 64.7409 28.7809 64.7409 25.9918ZM70.5908 25.9918C70.5908 27.7892 71.1198 29.2612 72.1779 30.4079C73.2663 31.5855 74.9895 32.2052 77.3476 32.2672C78.6779 32.3292 79.9173 32.3602 81.0662 32.3602C82.2452 32.3602 83.4847 32.3292 84.7847 32.2672C86.3568 32.2363 87.6417 31.9418 88.6393 31.384C89.637 30.8262 90.3626 30.0825 90.816 29.1527C91.2997 28.254 91.5415 27.2004 91.5415 25.9918C91.5415 24.7832 91.2997 23.7141 90.816 22.7844C90.3626 21.8547 89.637 21.1109 88.6393 20.5531C87.6417 20.0263 86.3568 19.7319 84.7847 19.6699C83.4847 19.6389 82.2452 19.6234 81.0662 19.6234C79.9173 19.6234 78.6779 19.6389 77.3476 19.6699C74.9895 19.7629 73.2663 20.3827 72.1779 21.5293C71.1198 22.6759 70.5908 24.1634 70.5908 25.9918Z" fill="white"/>
<path d="M35.4348 13.623L47.9189 35.0222C49.1993 37.2169 47.6298 39.9837 45.1046 39.9837H25.0366L28.7741 32.5762H36.9368L31.2229 21.8766L21.4278 39.9837H15.8543C13.2976 39.9837 11.7329 37.1548 13.0764 34.9614L26.1846 13.5622C26.7795 12.5911 27.8306 12 28.9626 12H32.6205C33.7776 12 34.8482 12.6174 35.4348 13.623Z" fill="white"/>
</g>
<defs>
<filter id="filter0_f_1_45" x="0" y="0" width="110" height="52" filterUnits="userSpaceOnUse" color-interpolation-filters="sRGB">
<feFlood flood-opacity="0" result="BackgroundImageFix"/>
<feBlend mode="normal" in="SourceGraphic" in2="BackgroundImageFix" result="shape"/>
<feGaussianBlur stdDeviation="6" result="effect1_foregroundBlur_1_45"/>
</filter>
<clipPath id="clip0_1_45">
<rect width="86" height="28" fill="white" transform="translate(12 12)"/>
</clipPath>
<clipPath id="clip1_1_45">
<rect width="86" height="28" fill="white" transform="translate(12 12)"/>
</clipPath>
</defs>
</svg>
