<svg width="27" height="22" viewBox="0 0 27 22" fill="none" xmlns="http://www.w3.org/2000/svg">
<path fill-rule="evenodd" clip-rule="evenodd" d="M2.29176 9.29865C9.28825 6.25039 13.9537 4.2408 16.288 3.26986C22.9531 0.497636 24.338 0.0160711 25.2407 0.000169546C25.4392 -0.00332783 25.8832 0.0458755 26.1707 0.279201C26.4135 0.476217 26.4803 0.742358 26.5123 0.92915C26.5443 1.11594 26.5841 1.54146 26.5524 1.87395C26.1912 5.66891 24.6284 14.8783 23.8333 19.1287C23.4969 20.9272 22.8345 21.5303 22.1932 21.5893C20.7994 21.7175 19.7411 20.6682 18.3912 19.7833C16.2789 18.3987 15.0856 17.5367 13.0352 16.1856C10.6657 14.6241 12.2017 13.7659 13.5521 12.3633C13.9055 11.9962 20.0463 6.4107 20.1652 5.90401C20.18 5.84064 20.1938 5.60442 20.0535 5.47969C19.9132 5.35496 19.7061 5.39762 19.5566 5.43154C19.3447 5.47962 15.9703 7.71 9.43326 12.1227C8.47543 12.7804 7.60787 13.1009 6.83055 13.0841C5.97363 13.0656 4.32525 12.5995 3.09985 12.2012C1.59685 11.7127 0.402295 11.4543 0.506314 10.6246C0.560494 10.1924 1.15564 9.75044 2.29176 9.29865Z" fill="#0F0C17"/>
</svg>
