<svg width="27" height="26" viewBox="0 0 27 26" fill="none" xmlns="http://www.w3.org/2000/svg">
<g clip-path="url(#clip0_136_24)">
<path d="M8.67934 23.5625C18.4882 23.5625 23.8548 15.434 23.8548 8.38708C23.8548 8.15856 23.8497 7.92497 23.8396 7.69645C24.8835 6.94148 25.7845 6.00634 26.5 4.93497C25.5277 5.36754 24.4954 5.65006 23.4384 5.77286C24.5514 5.10571 25.3847 4.05766 25.784 2.82298C24.7369 3.4435 23.5919 3.88122 22.3979 4.11739C21.5934 3.26259 20.5297 2.6966 19.3713 2.50695C18.2129 2.3173 17.0243 2.51453 15.9892 3.06817C14.9541 3.6218 14.1303 4.50099 13.645 5.56982C13.1597 6.63864 13.04 7.83756 13.3045 8.98122C11.1844 8.87483 9.11026 8.32407 7.21665 7.36467C5.32303 6.40526 3.65217 5.05862 2.31238 3.41204C1.63143 4.58607 1.42306 5.97534 1.72962 7.29749C2.03617 8.61964 2.83465 9.77546 3.96277 10.53C3.11585 10.5032 2.28747 10.2751 1.54609 9.86481V9.93083C1.54534 11.1629 1.97127 12.3572 2.7515 13.3107C3.53173 14.2643 4.6181 14.9182 5.82594 15.1613C5.04139 15.3759 4.21798 15.4072 3.41941 15.2527C3.76024 16.3123 4.42337 17.239 5.31625 17.9036C6.20913 18.5681 7.28721 18.9374 8.40004 18.9597C6.51079 20.4438 4.17702 21.2487 1.77461 21.2449C1.34856 21.2442 0.922932 21.2181 0.5 21.1667C2.94059 22.7325 5.77966 23.5641 8.67934 23.5625Z" fill="white"/>
</g>
<defs>
<clipPath id="clip0_136_24">
<rect width="26" height="26" fill="white" transform="translate(0.5)"/>
</clipPath>
</defs>
</svg>
